<?xml version="1.0" encoding="utf-8" standalone="no"?>
<!DOCTYPE svg PUBLIC "-//W3C//DTD SVG 1.1//EN"
  "http://www.w3.org/Graphics/SVG/1.1/DTD/svg11.dtd">
<svg xmlns:xlink="http://www.w3.org/1999/xlink" width="720pt" height="405pt" viewBox="0 0 720 405" xmlns="http://www.w3.org/2000/svg" version="1.1">
 <metadata>
  <rdf:RDF xmlns:dc="http://purl.org/dc/elements/1.1/" xmlns:cc="http://creativecommons.org/ns#" xmlns:rdf="http://www.w3.org/1999/02/22-rdf-syntax-ns#">
   <cc:Work>
    <dc:type rdf:resource="http://purl.org/dc/dcmitype/StillImage"/>
    <dc:date>2025-04-07T13:27:07.470746</dc:date>
    <dc:format>image/svg+xml</dc:format>
    <dc:creator>
     <cc:Agent>
      <dc:title>Matplotlib v3.9.4, https://matplotlib.org/</dc:title>
     </cc:Agent>
    </dc:creator>
   </cc:Work>
  </rdf:RDF>
 </metadata>
 <defs>
  <style type="text/css">*{stroke-linejoin: round; stroke-linecap: butt}</style>
 </defs>
 <g id="figure_1">
  <g id="patch_1">
   <path d="M 0 405 
L 720 405 
L 720 0 
L 0 0 
z
" style="fill: #ffffff"/>
  </g>
  <g id="axes_1">
   <g id="patch_2">
    <path d="M 90 360.45 
L 648 360.45 
L 648 48.6 
L 90 48.6 
z
" style="fill: #ffffff"/>
   </g>
   <g id="matplotlib.axis_1">
    <g id="xtick_1">
     <g id="line2d_1">
      <defs>
       <path id="mb7b9a2c602" d="M 0 0 
L 0 3.5 
" style="stroke: #000000; stroke-width: 0.8"/>
      </defs>
      <g>
       <use xlink:href="#mb7b9a2c602" x="90" y="360.45" style="stroke: #000000; stroke-width: 0.8"/>
      </g>
     </g>
     <g id="text_1">
      <!-- 0.0 -->
      <g transform="translate(78.72375 379.6075) scale(0.16 -0.16)">
       <defs>
        <path id="OpenSans-Regular-30" d="M 3341 2291 
Q 3341 1106 2967 521 
Q 2594 -63 1825 -63 
Q 1088 -63 703 535 
Q 319 1134 319 2291 
Q 319 3484 691 4062 
Q 1063 4641 1825 4641 
Q 2569 4641 2955 4037 
Q 3341 3434 3341 2291 
z
M 844 2291 
Q 844 1294 1078 839 
Q 1313 384 1825 384 
Q 2344 384 2576 845 
Q 2809 1306 2809 2291 
Q 2809 3275 2576 3733 
Q 2344 4191 1825 4191 
Q 1313 4191 1078 3739 
Q 844 3288 844 2291 
z
" transform="scale(0.015625)"/>
        <path id="OpenSans-Regular-2e" d="M 475 331 
Q 475 541 570 648 
Q 666 756 844 756 
Q 1025 756 1126 648 
Q 1228 541 1228 331 
Q 1228 128 1125 18 
Q 1022 -91 844 -91 
Q 684 -91 579 7 
Q 475 106 475 331 
z
" transform="scale(0.015625)"/>
       </defs>
       <use xlink:href="#OpenSans-Regular-30"/>
       <use xlink:href="#OpenSans-Regular-2e" x="57.177734"/>
       <use xlink:href="#OpenSans-Regular-30" x="83.789062"/>
      </g>
     </g>
    </g>
    <g id="xtick_2">
     <g id="line2d_2">
      <g>
       <use xlink:href="#mb7b9a2c602" x="159.75" y="360.45" style="stroke: #000000; stroke-width: 0.8"/>
      </g>
     </g>
     <g id="text_2">
      <!-- 2.5 -->
      <g transform="translate(148.47375 379.6075) scale(0.16 -0.16)">
       <defs>
        <path id="OpenSans-Regular-32" d="M 3316 0 
L 313 0 
L 313 447 
L 1516 1656 
Q 2066 2213 2241 2450 
Q 2416 2688 2503 2913 
Q 2591 3138 2591 3397 
Q 2591 3763 2369 3977 
Q 2147 4191 1753 4191 
Q 1469 4191 1214 4097 
Q 959 4003 647 3756 
L 372 4109 
Q 1003 4634 1747 4634 
Q 2391 4634 2756 4304 
Q 3122 3975 3122 3419 
Q 3122 2984 2878 2559 
Q 2634 2134 1966 1484 
L 966 506 
L 966 481 
L 3316 481 
L 3316 0 
z
" transform="scale(0.015625)"/>
        <path id="OpenSans-Regular-35" d="M 1741 2791 
Q 2463 2791 2877 2433 
Q 3291 2075 3291 1453 
Q 3291 744 2839 340 
Q 2388 -63 1594 -63 
Q 822 -63 416 184 
L 416 684 
Q 634 544 959 464 
Q 1284 384 1600 384 
Q 2150 384 2454 643 
Q 2759 903 2759 1394 
Q 2759 2350 1588 2350 
Q 1291 2350 794 2259 
L 525 2431 
L 697 4569 
L 2969 4569 
L 2969 4091 
L 1141 4091 
L 1025 2719 
Q 1384 2791 1741 2791 
z
" transform="scale(0.015625)"/>
       </defs>
       <use xlink:href="#OpenSans-Regular-32"/>
       <use xlink:href="#OpenSans-Regular-2e" x="57.177734"/>
       <use xlink:href="#OpenSans-Regular-35" x="83.789062"/>
      </g>
     </g>
    </g>
    <g id="xtick_3">
     <g id="line2d_3">
      <g>
       <use xlink:href="#mb7b9a2c602" x="229.5" y="360.45" style="stroke: #000000; stroke-width: 0.8"/>
      </g>
     </g>
     <g id="text_3">
      <!-- 5.0 -->
      <g transform="translate(218.22375 379.6075) scale(0.16 -0.16)">
       <use xlink:href="#OpenSans-Regular-35"/>
       <use xlink:href="#OpenSans-Regular-2e" x="57.177734"/>
       <use xlink:href="#OpenSans-Regular-30" x="83.789062"/>
      </g>
     </g>
    </g>
    <g id="xtick_4">
     <g id="line2d_4">
      <g>
       <use xlink:href="#mb7b9a2c602" x="299.25" y="360.45" style="stroke: #000000; stroke-width: 0.8"/>
      </g>
     </g>
     <g id="text_4">
      <!-- 7.5 -->
      <g transform="translate(287.97375 379.6075) scale(0.16 -0.16)">
       <defs>
        <path id="OpenSans-Regular-37" d="M 891 0 
L 2784 4091 
L 294 4091 
L 294 4569 
L 3334 4569 
L 3334 4153 
L 1466 0 
L 891 0 
z
" transform="scale(0.015625)"/>
       </defs>
       <use xlink:href="#OpenSans-Regular-37"/>
       <use xlink:href="#OpenSans-Regular-2e" x="57.177734"/>
       <use xlink:href="#OpenSans-Regular-35" x="83.789062"/>
      </g>
     </g>
    </g>
    <g id="xtick_5">
     <g id="line2d_5">
      <g>
       <use xlink:href="#mb7b9a2c602" x="369" y="360.45" style="stroke: #000000; stroke-width: 0.8"/>
      </g>
     </g>
     <g id="text_5">
      <!-- 10.0 -->
      <g transform="translate(353.15 379.6075) scale(0.16 -0.16)">
       <defs>
        <path id="OpenSans-Regular-31" d="M 2234 0 
L 1728 0 
L 1728 3256 
Q 1728 3663 1753 4025 
Q 1688 3959 1606 3887 
Q 1525 3816 863 3278 
L 588 3634 
L 1797 4569 
L 2234 4569 
L 2234 0 
z
" transform="scale(0.015625)"/>
       </defs>
       <use xlink:href="#OpenSans-Regular-31"/>
       <use xlink:href="#OpenSans-Regular-30" x="57.177734"/>
       <use xlink:href="#OpenSans-Regular-2e" x="114.355469"/>
       <use xlink:href="#OpenSans-Regular-30" x="140.966797"/>
      </g>
     </g>
    </g>
    <g id="xtick_6">
     <g id="line2d_6">
      <g>
       <use xlink:href="#mb7b9a2c602" x="438.75" y="360.45" style="stroke: #000000; stroke-width: 0.8"/>
      </g>
     </g>
     <g id="text_6">
      <!-- 12.5 -->
      <g transform="translate(422.9 379.6075) scale(0.16 -0.16)">
       <use xlink:href="#OpenSans-Regular-31"/>
       <use xlink:href="#OpenSans-Regular-32" x="57.177734"/>
       <use xlink:href="#OpenSans-Regular-2e" x="114.355469"/>
       <use xlink:href="#OpenSans-Regular-35" x="140.966797"/>
      </g>
     </g>
    </g>
    <g id="xtick_7">
     <g id="line2d_7">
      <g>
       <use xlink:href="#mb7b9a2c602" x="508.5" y="360.45" style="stroke: #000000; stroke-width: 0.8"/>
      </g>
     </g>
     <g id="text_7">
      <!-- 15.0 -->
      <g transform="translate(492.65 379.6075) scale(0.16 -0.16)">
       <use xlink:href="#OpenSans-Regular-31"/>
       <use xlink:href="#OpenSans-Regular-35" x="57.177734"/>
       <use xlink:href="#OpenSans-Regular-2e" x="114.355469"/>
       <use xlink:href="#OpenSans-Regular-30" x="140.966797"/>
      </g>
     </g>
    </g>
    <g id="xtick_8">
     <g id="line2d_8">
      <g>
       <use xlink:href="#mb7b9a2c602" x="578.25" y="360.45" style="stroke: #000000; stroke-width: 0.8"/>
      </g>
     </g>
     <g id="text_8">
      <!-- 17.5 -->
      <g transform="translate(562.4 379.6075) scale(0.16 -0.16)">
       <use xlink:href="#OpenSans-Regular-31"/>
       <use xlink:href="#OpenSans-Regular-37" x="57.177734"/>
       <use xlink:href="#OpenSans-Regular-2e" x="114.355469"/>
       <use xlink:href="#OpenSans-Regular-35" x="140.966797"/>
      </g>
     </g>
    </g>
    <g id="xtick_9">
     <g id="line2d_9">
      <g>
       <use xlink:href="#mb7b9a2c602" x="648" y="360.45" style="stroke: #000000; stroke-width: 0.8"/>
      </g>
     </g>
     <g id="text_9">
      <!-- 20.0 -->
      <g transform="translate(632.15 379.6075) scale(0.16 -0.16)">
       <use xlink:href="#OpenSans-Regular-32"/>
       <use xlink:href="#OpenSans-Regular-30" x="57.177734"/>
       <use xlink:href="#OpenSans-Regular-2e" x="114.355469"/>
       <use xlink:href="#OpenSans-Regular-30" x="140.966797"/>
      </g>
     </g>
    </g>
    <g id="text_10">
     <!-- Wind speed, m/s -->
     <g transform="translate(299.075625 401.129687) scale(0.18 -0.18)">
      <defs>
       <path id="OpenSans-Regular-57" d="M 4616 0 
L 4091 0 
L 3169 3059 
Q 3103 3263 3022 3572 
Q 2941 3881 2938 3944 
Q 2869 3531 2719 3041 
L 1825 0 
L 1300 0 
L 84 4569 
L 647 4569 
L 1369 1747 
Q 1519 1153 1588 672 
Q 1672 1244 1838 1791 
L 2656 4569 
L 3219 4569 
L 4078 1766 
Q 4228 1281 4331 672 
Q 4391 1116 4556 1753 
L 5275 4569 
L 5838 4569 
L 4616 0 
z
" transform="scale(0.015625)"/>
       <path id="OpenSans-Regular-69" d="M 1069 0 
L 550 0 
L 550 3425 
L 1069 3425 
L 1069 0 
z
M 506 4353 
Q 506 4531 593 4614 
Q 681 4697 813 4697 
Q 938 4697 1028 4612 
Q 1119 4528 1119 4353 
Q 1119 4178 1028 4092 
Q 938 4006 813 4006 
Q 681 4006 593 4092 
Q 506 4178 506 4353 
z
" transform="scale(0.015625)"/>
       <path id="OpenSans-Regular-6e" d="M 2894 0 
L 2894 2216 
Q 2894 2634 2703 2840 
Q 2513 3047 2106 3047 
Q 1569 3047 1319 2756 
Q 1069 2466 1069 1797 
L 1069 0 
L 550 0 
L 550 3425 
L 972 3425 
L 1056 2956 
L 1081 2956 
Q 1241 3209 1528 3348 
Q 1816 3488 2169 3488 
Q 2788 3488 3100 3189 
Q 3413 2891 3413 2234 
L 3413 0 
L 2894 0 
z
" transform="scale(0.015625)"/>
       <path id="OpenSans-Regular-64" d="M 2881 459 
L 2853 459 
Q 2494 -63 1778 -63 
Q 1106 -63 732 396 
Q 359 856 359 1703 
Q 359 2550 734 3019 
Q 1109 3488 1778 3488 
Q 2475 3488 2847 2981 
L 2888 2981 
L 2866 3228 
L 2853 3469 
L 2853 4863 
L 3372 4863 
L 3372 0 
L 2950 0 
L 2881 459 
z
M 1844 372 
Q 2375 372 2614 661 
Q 2853 950 2853 1594 
L 2853 1703 
Q 2853 2431 2611 2742 
Q 2369 3053 1838 3053 
Q 1381 3053 1139 2698 
Q 897 2344 897 1697 
Q 897 1041 1137 706 
Q 1378 372 1844 372 
z
" transform="scale(0.015625)"/>
       <path id="OpenSans-Regular-20" transform="scale(0.015625)"/>
       <path id="OpenSans-Regular-73" d="M 2759 934 
Q 2759 456 2403 196 
Q 2047 -63 1403 -63 
Q 722 -63 341 153 
L 341 634 
Q 588 509 870 437 
Q 1153 366 1416 366 
Q 1822 366 2040 495 
Q 2259 625 2259 891 
Q 2259 1091 2086 1233 
Q 1913 1375 1409 1569 
Q 931 1747 729 1880 
Q 528 2013 429 2181 
Q 331 2350 331 2584 
Q 331 3003 672 3245 
Q 1013 3488 1606 3488 
Q 2159 3488 2688 3263 
L 2503 2841 
Q 1988 3053 1569 3053 
Q 1200 3053 1012 2937 
Q 825 2822 825 2619 
Q 825 2481 895 2384 
Q 966 2288 1122 2200 
Q 1278 2113 1722 1947 
Q 2331 1725 2545 1500 
Q 2759 1275 2759 934 
z
" transform="scale(0.015625)"/>
       <path id="OpenSans-Regular-70" d="M 2144 -63 
Q 1809 -63 1532 60 
Q 1256 184 1069 441 
L 1031 441 
Q 1069 141 1069 -128 
L 1069 -1538 
L 550 -1538 
L 550 3425 
L 972 3425 
L 1044 2956 
L 1069 2956 
Q 1269 3238 1534 3363 
Q 1800 3488 2144 3488 
Q 2825 3488 3195 3022 
Q 3566 2556 3566 1716 
Q 3566 872 3189 404 
Q 2813 -63 2144 -63 
z
M 2069 3047 
Q 1544 3047 1309 2756 
Q 1075 2466 1069 1831 
L 1069 1716 
Q 1069 994 1309 683 
Q 1550 372 2081 372 
Q 2525 372 2776 731 
Q 3028 1091 3028 1722 
Q 3028 2363 2776 2705 
Q 2525 3047 2069 3047 
z
" transform="scale(0.015625)"/>
       <path id="OpenSans-Regular-65" d="M 1997 -63 
Q 1238 -63 798 400 
Q 359 863 359 1684 
Q 359 2513 767 3000 
Q 1175 3488 1863 3488 
Q 2506 3488 2881 3064 
Q 3256 2641 3256 1947 
L 3256 1619 
L 897 1619 
Q 913 1016 1202 703 
Q 1491 391 2016 391 
Q 2569 391 3109 622 
L 3109 159 
Q 2834 41 2589 -11 
Q 2344 -63 1997 -63 
z
M 1856 3053 
Q 1444 3053 1198 2784 
Q 953 2516 909 2041 
L 2700 2041 
Q 2700 2531 2481 2792 
Q 2263 3053 1856 3053 
z
" transform="scale(0.015625)"/>
       <path id="OpenSans-Regular-2c" d="M 1094 744 
L 1141 672 
Q 1059 359 906 -55 
Q 753 -469 588 -825 
L 197 -825 
Q 281 -500 382 -22 
Q 484 456 525 744 
L 1094 744 
z
" transform="scale(0.015625)"/>
       <path id="OpenSans-Regular-6d" d="M 4916 0 
L 4916 2228 
Q 4916 2638 4741 2842 
Q 4566 3047 4197 3047 
Q 3713 3047 3481 2769 
Q 3250 2491 3250 1913 
L 3250 0 
L 2731 0 
L 2731 2228 
Q 2731 2638 2556 2842 
Q 2381 3047 2009 3047 
Q 1522 3047 1295 2755 
Q 1069 2463 1069 1797 
L 1069 0 
L 550 0 
L 550 3425 
L 972 3425 
L 1056 2956 
L 1081 2956 
Q 1228 3206 1495 3347 
Q 1763 3488 2094 3488 
Q 2897 3488 3144 2906 
L 3169 2906 
Q 3322 3175 3612 3331 
Q 3903 3488 4275 3488 
Q 4856 3488 5145 3189 
Q 5434 2891 5434 2234 
L 5434 0 
L 4916 0 
z
" transform="scale(0.015625)"/>
       <path id="OpenSans-Regular-2f" d="M 2284 4569 
L 581 0 
L 63 0 
L 1766 4569 
L 2284 4569 
z
" transform="scale(0.015625)"/>
      </defs>
      <use xlink:href="#OpenSans-Regular-57"/>
      <use xlink:href="#OpenSans-Regular-69" x="92.578125"/>
      <use xlink:href="#OpenSans-Regular-6e" x="117.871094"/>
      <use xlink:href="#OpenSans-Regular-64" x="179.248047"/>
      <use xlink:href="#OpenSans-Regular-20" x="240.527344"/>
      <use xlink:href="#OpenSans-Regular-73" x="266.503906"/>
      <use xlink:href="#OpenSans-Regular-70" x="314.208984"/>
      <use xlink:href="#OpenSans-Regular-65" x="375.488281"/>
      <use xlink:href="#OpenSans-Regular-65" x="431.591797"/>
      <use xlink:href="#OpenSans-Regular-64" x="487.695312"/>
      <use xlink:href="#OpenSans-Regular-2c" x="548.974609"/>
      <use xlink:href="#OpenSans-Regular-20" x="573.486328"/>
      <use xlink:href="#OpenSans-Regular-6d" x="599.462891"/>
      <use xlink:href="#OpenSans-Regular-2f" x="692.480469"/>
      <use xlink:href="#OpenSans-Regular-73" x="729.199219"/>
     </g>
    </g>
   </g>
   <g id="matplotlib.axis_2">
    <g id="ytick_1">
     <g id="line2d_10">
      <defs>
       <path id="m9ca92c1207" d="M 0 0 
L -3.5 0 
" style="stroke: #000000; stroke-width: 0.8"/>
      </defs>
      <g>
       <use xlink:href="#m9ca92c1207" x="90" y="360.45" style="stroke: #000000; stroke-width: 0.8"/>
      </g>
     </g>
     <g id="text_11">
      <!-- 0.0 -->
      <g transform="translate(60.4475 366.52875) scale(0.16 -0.16)">
       <use xlink:href="#OpenSans-Regular-30"/>
       <use xlink:href="#OpenSans-Regular-2e" x="57.177734"/>
       <use xlink:href="#OpenSans-Regular-30" x="83.789062"/>
      </g>
     </g>
    </g>
    <g id="ytick_2">
     <g id="line2d_11">
      <g>
       <use xlink:href="#m9ca92c1207" x="90" y="321.46875" style="stroke: #000000; stroke-width: 0.8"/>
      </g>
     </g>
     <g id="text_12">
      <!-- 0.2 -->
      <g transform="translate(60.4475 327.5475) scale(0.16 -0.16)">
       <use xlink:href="#OpenSans-Regular-30"/>
       <use xlink:href="#OpenSans-Regular-2e" x="57.177734"/>
       <use xlink:href="#OpenSans-Regular-32" x="83.789062"/>
      </g>
     </g>
    </g>
    <g id="ytick_3">
     <g id="line2d_12">
      <g>
       <use xlink:href="#m9ca92c1207" x="90" y="282.4875" style="stroke: #000000; stroke-width: 0.8"/>
      </g>
     </g>
     <g id="text_13">
      <!-- 0.4 -->
      <g transform="translate(60.4475 288.56625) scale(0.16 -0.16)">
       <defs>
        <path id="OpenSans-Regular-34" d="M 3531 1050 
L 2853 1050 
L 2853 0 
L 2356 0 
L 2356 1050 
L 134 1050 
L 134 1503 
L 2303 4594 
L 2853 4594 
L 2853 1522 
L 3531 1522 
L 3531 1050 
z
M 2356 1522 
L 2356 3041 
Q 2356 3488 2388 4050 
L 2363 4050 
Q 2213 3750 2081 3553 
L 653 1522 
L 2356 1522 
z
" transform="scale(0.015625)"/>
       </defs>
       <use xlink:href="#OpenSans-Regular-30"/>
       <use xlink:href="#OpenSans-Regular-2e" x="57.177734"/>
       <use xlink:href="#OpenSans-Regular-34" x="83.789062"/>
      </g>
     </g>
    </g>
    <g id="ytick_4">
     <g id="line2d_13">
      <g>
       <use xlink:href="#m9ca92c1207" x="90" y="243.50625" style="stroke: #000000; stroke-width: 0.8"/>
      </g>
     </g>
     <g id="text_14">
      <!-- 0.6 -->
      <g transform="translate(60.4475 249.585) scale(0.16 -0.16)">
       <defs>
        <path id="OpenSans-Regular-36" d="M 366 1953 
Q 366 3300 889 3967 
Q 1413 4634 2438 4634 
Q 2791 4634 2994 4575 
L 2994 4128 
Q 2753 4206 2444 4206 
Q 1709 4206 1321 3748 
Q 934 3291 897 2309 
L 934 2309 
Q 1278 2847 2022 2847 
Q 2638 2847 2992 2475 
Q 3347 2103 3347 1466 
Q 3347 753 2958 345 
Q 2569 -63 1906 -63 
Q 1197 -63 781 470 
Q 366 1003 366 1953 
z
M 1900 378 
Q 2344 378 2589 658 
Q 2834 938 2834 1466 
Q 2834 1919 2606 2178 
Q 2378 2438 1925 2438 
Q 1644 2438 1409 2322 
Q 1175 2206 1036 2003 
Q 897 1800 897 1581 
Q 897 1259 1022 981 
Q 1147 703 1376 540 
Q 1606 378 1900 378 
z
" transform="scale(0.015625)"/>
       </defs>
       <use xlink:href="#OpenSans-Regular-30"/>
       <use xlink:href="#OpenSans-Regular-2e" x="57.177734"/>
       <use xlink:href="#OpenSans-Regular-36" x="83.789062"/>
      </g>
     </g>
    </g>
    <g id="ytick_5">
     <g id="line2d_14">
      <g>
       <use xlink:href="#m9ca92c1207" x="90" y="204.525" style="stroke: #000000; stroke-width: 0.8"/>
      </g>
     </g>
     <g id="text_15">
      <!-- 0.8 -->
      <g transform="translate(60.4475 210.60375) scale(0.16 -0.16)">
       <defs>
        <path id="OpenSans-Regular-38" d="M 1825 4634 
Q 2450 4634 2815 4343 
Q 3181 4053 3181 3541 
Q 3181 3203 2972 2925 
Q 2763 2647 2303 2419 
Q 2859 2153 3093 1861 
Q 3328 1569 3328 1184 
Q 3328 616 2931 276 
Q 2534 -63 1844 -63 
Q 1113 -63 719 257 
Q 325 578 325 1166 
Q 325 1950 1281 2388 
Q 850 2631 662 2914 
Q 475 3197 475 3547 
Q 475 4044 842 4339 
Q 1209 4634 1825 4634 
z
M 838 1153 
Q 838 778 1098 568 
Q 1359 359 1831 359 
Q 2297 359 2556 578 
Q 2816 797 2816 1178 
Q 2816 1481 2572 1717 
Q 2328 1953 1722 2175 
Q 1256 1975 1047 1733 
Q 838 1491 838 1153 
z
M 1819 4213 
Q 1428 4213 1206 4025 
Q 984 3838 984 3525 
Q 984 3238 1168 3031 
Q 1353 2825 1850 2619 
Q 2297 2806 2483 3022 
Q 2669 3238 2669 3525 
Q 2669 3841 2442 4027 
Q 2216 4213 1819 4213 
z
" transform="scale(0.015625)"/>
       </defs>
       <use xlink:href="#OpenSans-Regular-30"/>
       <use xlink:href="#OpenSans-Regular-2e" x="57.177734"/>
       <use xlink:href="#OpenSans-Regular-38" x="83.789062"/>
      </g>
     </g>
    </g>
    <g id="ytick_6">
     <g id="line2d_15">
      <g>
       <use xlink:href="#m9ca92c1207" x="90" y="165.54375" style="stroke: #000000; stroke-width: 0.8"/>
      </g>
     </g>
     <g id="text_16">
      <!-- 1.0 -->
      <g transform="translate(60.4475 171.6225) scale(0.16 -0.16)">
       <use xlink:href="#OpenSans-Regular-31"/>
       <use xlink:href="#OpenSans-Regular-2e" x="57.177734"/>
       <use xlink:href="#OpenSans-Regular-30" x="83.789062"/>
      </g>
     </g>
    </g>
    <g id="ytick_7">
     <g id="line2d_16">
      <g>
       <use xlink:href="#m9ca92c1207" x="90" y="126.5625" style="stroke: #000000; stroke-width: 0.8"/>
      </g>
     </g>
     <g id="text_17">
      <!-- 1.2 -->
      <g transform="translate(60.4475 132.64125) scale(0.16 -0.16)">
       <use xlink:href="#OpenSans-Regular-31"/>
       <use xlink:href="#OpenSans-Regular-2e" x="57.177734"/>
       <use xlink:href="#OpenSans-Regular-32" x="83.789062"/>
      </g>
     </g>
    </g>
    <g id="ytick_8">
     <g id="line2d_17">
      <g>
       <use xlink:href="#m9ca92c1207" x="90" y="87.58125" style="stroke: #000000; stroke-width: 0.8"/>
      </g>
     </g>
     <g id="text_18">
      <!-- 1.4 -->
      <g transform="translate(60.4475 93.66) scale(0.16 -0.16)">
       <use xlink:href="#OpenSans-Regular-31"/>
       <use xlink:href="#OpenSans-Regular-2e" x="57.177734"/>
       <use xlink:href="#OpenSans-Regular-34" x="83.789062"/>
      </g>
     </g>
    </g>
    <g id="ytick_9">
     <g id="line2d_18">
      <g>
       <use xlink:href="#m9ca92c1207" x="90" y="48.6" style="stroke: #000000; stroke-width: 0.8"/>
      </g>
     </g>
     <g id="text_19">
      <!-- 1.6 -->
      <g transform="translate(60.4475 54.67875) scale(0.16 -0.16)">
       <use xlink:href="#OpenSans-Regular-31"/>
       <use xlink:href="#OpenSans-Regular-2e" x="57.177734"/>
       <use xlink:href="#OpenSans-Regular-36" x="83.789062"/>
      </g>
     </g>
    </g>
    <g id="text_20">
     <!-- Reeling factor -->
     <g transform="translate(52.121875 262.161563) rotate(-90) scale(0.18 -0.18)">
      <defs>
       <path id="OpenSans-Regular-52" d="M 1159 1900 
L 1159 0 
L 628 0 
L 628 4569 
L 1881 4569 
Q 2722 4569 3123 4247 
Q 3525 3925 3525 3278 
Q 3525 2372 2606 2053 
L 3847 0 
L 3219 0 
L 2113 1900 
L 1159 1900 
z
M 1159 2356 
L 1888 2356 
Q 2450 2356 2712 2579 
Q 2975 2803 2975 3250 
Q 2975 3703 2708 3903 
Q 2441 4103 1850 4103 
L 1159 4103 
L 1159 2356 
z
" transform="scale(0.015625)"/>
       <path id="OpenSans-Regular-6c" d="M 1069 0 
L 550 0 
L 550 4863 
L 1069 4863 
L 1069 0 
z
" transform="scale(0.015625)"/>
       <path id="OpenSans-Regular-67" d="M 3353 3425 
L 3353 3097 
L 2719 3022 
Q 2806 2913 2875 2736 
Q 2944 2559 2944 2338 
Q 2944 1834 2600 1534 
Q 2256 1234 1656 1234 
Q 1503 1234 1369 1259 
Q 1038 1084 1038 819 
Q 1038 678 1153 611 
Q 1269 544 1550 544 
L 2156 544 
Q 2713 544 3011 309 
Q 3309 75 3309 -372 
Q 3309 -941 2853 -1239 
Q 2397 -1538 1522 -1538 
Q 850 -1538 486 -1288 
Q 122 -1038 122 -581 
Q 122 -269 322 -40 
Q 522 188 884 269 
Q 753 328 664 453 
Q 575 578 575 744 
Q 575 931 675 1072 
Q 775 1213 991 1344 
Q 725 1453 558 1715 
Q 391 1978 391 2316 
Q 391 2878 728 3183 
Q 1066 3488 1684 3488 
Q 1953 3488 2169 3425 
L 3353 3425 
z
M 622 -575 
Q 622 -853 856 -997 
Q 1091 -1141 1528 -1141 
Q 2181 -1141 2495 -945 
Q 2809 -750 2809 -416 
Q 2809 -138 2637 -30 
Q 2466 78 1991 78 
L 1369 78 
Q 1016 78 819 -90 
Q 622 -259 622 -575 
z
M 903 2328 
Q 903 1969 1106 1784 
Q 1309 1600 1672 1600 
Q 2431 1600 2431 2338 
Q 2431 3109 1663 3109 
Q 1297 3109 1100 2912 
Q 903 2716 903 2328 
z
" transform="scale(0.015625)"/>
       <path id="OpenSans-Regular-66" d="M 2094 3022 
L 1222 3022 
L 1222 0 
L 703 0 
L 703 3022 
L 91 3022 
L 91 3256 
L 703 3444 
L 703 3634 
Q 703 4897 1806 4897 
Q 2078 4897 2444 4788 
L 2309 4372 
Q 2009 4469 1797 4469 
Q 1503 4469 1362 4273 
Q 1222 4078 1222 3647 
L 1222 3425 
L 2094 3425 
L 2094 3022 
z
" transform="scale(0.015625)"/>
       <path id="OpenSans-Regular-61" d="M 2656 0 
L 2553 488 
L 2528 488 
Q 2272 166 2017 51 
Q 1763 -63 1381 -63 
Q 872 -63 583 200 
Q 294 463 294 947 
Q 294 1984 1953 2034 
L 2534 2053 
L 2534 2266 
Q 2534 2669 2361 2861 
Q 2188 3053 1806 3053 
Q 1378 3053 838 2791 
L 678 3188 
Q 931 3325 1232 3403 
Q 1534 3481 1838 3481 
Q 2450 3481 2745 3209 
Q 3041 2938 3041 2338 
L 3041 0 
L 2656 0 
z
M 1484 366 
Q 1969 366 2245 631 
Q 2522 897 2522 1375 
L 2522 1684 
L 2003 1663 
Q 1384 1641 1111 1470 
Q 838 1300 838 941 
Q 838 659 1008 512 
Q 1178 366 1484 366 
z
" transform="scale(0.015625)"/>
       <path id="OpenSans-Regular-63" d="M 1919 -63 
Q 1175 -63 767 395 
Q 359 853 359 1691 
Q 359 2550 773 3019 
Q 1188 3488 1953 3488 
Q 2200 3488 2447 3434 
Q 2694 3381 2834 3309 
L 2675 2869 
Q 2503 2938 2300 2983 
Q 2097 3028 1941 3028 
Q 897 3028 897 1697 
Q 897 1066 1151 728 
Q 1406 391 1906 391 
Q 2334 391 2784 575 
L 2784 116 
Q 2441 -63 1919 -63 
z
" transform="scale(0.015625)"/>
       <path id="OpenSans-Regular-74" d="M 1656 366 
Q 1794 366 1922 386 
Q 2050 406 2125 428 
L 2125 31 
Q 2041 -9 1877 -36 
Q 1713 -63 1581 -63 
Q 588 -63 588 984 
L 588 3022 
L 97 3022 
L 97 3272 
L 588 3488 
L 806 4219 
L 1106 4219 
L 1106 3425 
L 2100 3425 
L 2100 3022 
L 1106 3022 
L 1106 1006 
Q 1106 697 1253 531 
Q 1400 366 1656 366 
z
" transform="scale(0.015625)"/>
       <path id="OpenSans-Regular-6f" d="M 3506 1716 
Q 3506 878 3084 407 
Q 2663 -63 1919 -63 
Q 1459 -63 1103 153 
Q 747 369 553 772 
Q 359 1175 359 1716 
Q 359 2553 778 3020 
Q 1197 3488 1941 3488 
Q 2659 3488 3082 3009 
Q 3506 2531 3506 1716 
z
M 897 1716 
Q 897 1059 1159 715 
Q 1422 372 1931 372 
Q 2441 372 2705 714 
Q 2969 1056 2969 1716 
Q 2969 2369 2705 2708 
Q 2441 3047 1925 3047 
Q 1416 3047 1156 2712 
Q 897 2378 897 1716 
z
" transform="scale(0.015625)"/>
       <path id="OpenSans-Regular-72" d="M 2113 3488 
Q 2341 3488 2522 3450 
L 2450 2969 
Q 2238 3016 2075 3016 
Q 1659 3016 1364 2678 
Q 1069 2341 1069 1838 
L 1069 0 
L 550 0 
L 550 3425 
L 978 3425 
L 1038 2791 
L 1063 2791 
Q 1253 3125 1522 3306 
Q 1791 3488 2113 3488 
z
" transform="scale(0.015625)"/>
      </defs>
      <use xlink:href="#OpenSans-Regular-52"/>
      <use xlink:href="#OpenSans-Regular-65" x="61.816406"/>
      <use xlink:href="#OpenSans-Regular-65" x="117.919922"/>
      <use xlink:href="#OpenSans-Regular-6c" x="174.023438"/>
      <use xlink:href="#OpenSans-Regular-69" x="199.316406"/>
      <use xlink:href="#OpenSans-Regular-6e" x="224.609375"/>
      <use xlink:href="#OpenSans-Regular-67" x="285.986328"/>
      <use xlink:href="#OpenSans-Regular-20" x="340.771484"/>
      <use xlink:href="#OpenSans-Regular-66" x="366.748047"/>
      <use xlink:href="#OpenSans-Regular-61" x="400.634766"/>
      <use xlink:href="#OpenSans-Regular-63" x="456.25"/>
      <use xlink:href="#OpenSans-Regular-74" x="503.857422"/>
      <use xlink:href="#OpenSans-Regular-6f" x="539.160156"/>
      <use xlink:href="#OpenSans-Regular-72" x="599.560547"/>
     </g>
    </g>
   </g>
   <g id="LineCollection_1">
    <path d="M 266.127469 360.45 
L 266.127469 -1 
" clip-path="url(#p5fa189d006)" style="fill: none; stroke-dasharray: 1.5,2.475; stroke-dashoffset: 0; stroke: #000000; stroke-width: 1.5"/>
   </g>
   <g id="LineCollection_2">
    <path d="M 345.319875 360.45 
L 345.319875 -1 
" clip-path="url(#p5fa189d006)" style="fill: none; stroke-dasharray: 1.5,2.475; stroke-dashoffset: 0; stroke: #000000; stroke-width: 1.5"/>
   </g>
   <g id="line2d_19">
    <path d="M 117.9 316.370001 
L 266.049 316.370001 
L 266.886 315.801529 
L 272.745 311.569577 
L 278.883 307.417699 
L 285.3 303.356137 
L 291.996 299.393114 
L 298.971 295.535031 
L 306.225 291.786667 
L 313.758 288.151372 
L 321.57 284.631252 
L 329.661 281.227337 
L 338.31 277.833973 
L 345.285 275.264874 
L 346.68 275.703836 
L 356.445 278.809716 
L 366.768 281.854767 
L 377.649 284.827817 
L 389.088 287.720083 
L 401.085 290.524914 
L 413.919 293.295417 
L 427.59 296.0149 
L 442.098 298.669912 
L 457.443 301.249946 
L 473.904 303.788321 
L 491.481 306.268992 
L 510.174 308.679435 
L 530.262 311.04159 
L 551.745 313.34035 
L 574.902 315.59012 
L 599.733 317.775413 
L 626.517 319.905813 
L 648 321.466765 
L 648 321.466765 
" clip-path="url(#p5fa189d006)" style="fill: none; stroke-dasharray: 5.55,2.4; stroke-dashoffset: 0; stroke: #008000; stroke-width: 1.5"/>
   </g>
   <g id="line2d_20">
    <path d="M 117.9 206.938377 
L 266.049 206.938377 
L 266.328 206.328561 
L 269.676 206.440584 
L 273.303 206.777518 
L 277.488 207.39157 
L 282.231 208.317592 
L 287.532 209.579611 
L 293.67 211.268842 
L 301.203 213.584779 
L 310.41 216.659895 
L 322.965 221.103525 
L 345.285 229.247439 
L 355.608 235.152336 
L 355.887 235.861613 
L 364.815 240.491224 
L 374.022 245.020529 
L 383.508 249.444241 
L 393.273 253.757781 
L 403.596 258.070775 
L 414.198 262.254518 
L 425.079 266.308022 
L 436.239 270.231275 
L 441.261 271.924172 
L 441.54 272.411552 
L 456.048 276.857331 
L 470.556 281.069737 
L 485.064 285.050867 
L 489.249 286.156836 
L 489.528 286.566315 
L 513.522 292.208211 
L 513.801 292.653141 
L 514.08 292.841931 
L 517.428 292.61408 
L 517.707 292.805447 
L 517.986 293.254476 
L 543.375 299.140946 
L 543.654 298.887654 
L 559.557 302.069702 
L 575.739 305.08113 
L 592.479 307.971689 
L 602.244 309.558872 
L 602.523 309.871814 
L 622.053 313.011173 
L 642.699 316.101295 
L 648 316.859396 
L 648 316.859396 
" clip-path="url(#p5fa189d006)" style="fill: none; stroke-dasharray: 5.55,2.4; stroke-dashoffset: 0; stroke: #ff0000; stroke-width: 1.5"/>
   </g>
   <g id="patch_3">
    <path d="M 90 360.45 
L 90 48.6 
" style="fill: none; stroke: #000000; stroke-width: 0.8; stroke-linejoin: miter; stroke-linecap: square"/>
   </g>
   <g id="patch_4">
    <path d="M 648 360.45 
L 648 48.6 
" style="fill: none; stroke: #000000; stroke-width: 0.8; stroke-linejoin: miter; stroke-linecap: square"/>
   </g>
   <g id="patch_5">
    <path d="M 90 360.45 
L 648 360.45 
" style="fill: none; stroke: #000000; stroke-width: 0.8; stroke-linejoin: miter; stroke-linecap: square"/>
   </g>
   <g id="patch_6">
    <path d="M 90 48.6 
L 648 48.6 
" style="fill: none; stroke: #000000; stroke-width: 0.8; stroke-linejoin: miter; stroke-linecap: square"/>
   </g>
   <g id="text_21">
    <!-- $v_{\mathrm{n,F}}$ -->
    <g transform="translate(249.657469 40.627406) scale(0.18 -0.18)">
     <defs>
      <path id="DejaVuSans-Oblique-76" d="M 459 3500 
L 1069 3500 
L 1581 525 
L 3256 3500 
L 3866 3500 
L 1875 0 
L 1100 0 
L 459 3500 
z
" transform="scale(0.015625)"/>
      <path id="DejaVuSans-6e" d="M 3513 2113 
L 3513 0 
L 2938 0 
L 2938 2094 
Q 2938 2591 2744 2837 
Q 2550 3084 2163 3084 
Q 1697 3084 1428 2787 
Q 1159 2491 1159 1978 
L 1159 0 
L 581 0 
L 581 3500 
L 1159 3500 
L 1159 2956 
Q 1366 3272 1645 3428 
Q 1925 3584 2291 3584 
Q 2894 3584 3203 3211 
Q 3513 2838 3513 2113 
z
" transform="scale(0.015625)"/>
      <path id="DejaVuSans-2c" d="M 750 794 
L 1409 794 
L 1409 256 
L 897 -744 
L 494 -744 
L 750 256 
L 750 794 
z
" transform="scale(0.015625)"/>
      <path id="DejaVuSans-46" d="M 628 4666 
L 3309 4666 
L 3309 4134 
L 1259 4134 
L 1259 2759 
L 3109 2759 
L 3109 2228 
L 1259 2228 
L 1259 0 
L 628 0 
L 628 4666 
z
" transform="scale(0.015625)"/>
     </defs>
     <use xlink:href="#DejaVuSans-Oblique-76" transform="translate(0 0.3125)"/>
     <use xlink:href="#DejaVuSans-6e" transform="translate(59.179688 -16.09375) scale(0.7)"/>
     <use xlink:href="#DejaVuSans-2c" transform="translate(103.544922 -16.09375) scale(0.7)"/>
     <use xlink:href="#DejaVuSans-46" transform="translate(139.433594 -16.09375) scale(0.7)"/>
    </g>
   </g>
   <g id="text_22">
    <!-- $v_{\mathrm{n,P}}$ -->
    <g transform="translate(328.669875 40.627406) scale(0.18 -0.18)">
     <defs>
      <path id="DejaVuSans-50" d="M 1259 4147 
L 1259 2394 
L 2053 2394 
Q 2494 2394 2734 2622 
Q 2975 2850 2975 3272 
Q 2975 3691 2734 3919 
Q 2494 4147 2053 4147 
L 1259 4147 
z
M 628 4666 
L 2053 4666 
Q 2838 4666 3239 4311 
Q 3641 3956 3641 3272 
Q 3641 2581 3239 2228 
Q 2838 1875 2053 1875 
L 1259 1875 
L 1259 0 
L 628 0 
L 628 4666 
z
" transform="scale(0.015625)"/>
     </defs>
     <use xlink:href="#DejaVuSans-Oblique-76" transform="translate(0 0.3125)"/>
     <use xlink:href="#DejaVuSans-6e" transform="translate(59.179688 -16.09375) scale(0.7)"/>
     <use xlink:href="#DejaVuSans-2c" transform="translate(103.544922 -16.09375) scale(0.7)"/>
     <use xlink:href="#DejaVuSans-50" transform="translate(139.433594 -16.09375) scale(0.7)"/>
    </g>
   </g>
  </g>
  <g id="axes_2">
   <g id="matplotlib.axis_3">
    <g id="ytick_10">
     <g id="line2d_21">
      <defs>
       <path id="m90d7f334c7" d="M 0 0 
L 3.5 0 
" style="stroke: #000000; stroke-width: 0.8"/>
      </defs>
      <g>
       <use xlink:href="#m90d7f334c7" x="648" y="360.45" style="stroke: #000000; stroke-width: 0.8"/>
      </g>
     </g>
     <g id="text_23">
      <!-- 0.0 -->
      <g transform="translate(655 366.52875) scale(0.16 -0.16)">
       <use xlink:href="#OpenSans-Regular-30"/>
       <use xlink:href="#OpenSans-Regular-2e" x="57.177734"/>
       <use xlink:href="#OpenSans-Regular-30" x="83.789062"/>
      </g>
     </g>
    </g>
    <g id="ytick_11">
     <g id="line2d_22">
      <g>
       <use xlink:href="#m90d7f334c7" x="648" y="308.475" style="stroke: #000000; stroke-width: 0.8"/>
      </g>
     </g>
     <g id="text_24">
      <!-- 0.1 -->
      <g transform="translate(655 314.55375) scale(0.16 -0.16)">
       <use xlink:href="#OpenSans-Regular-30"/>
       <use xlink:href="#OpenSans-Regular-2e" x="57.177734"/>
       <use xlink:href="#OpenSans-Regular-31" x="83.789062"/>
      </g>
     </g>
    </g>
    <g id="ytick_12">
     <g id="line2d_23">
      <g>
       <use xlink:href="#m90d7f334c7" x="648" y="256.5" style="stroke: #000000; stroke-width: 0.8"/>
      </g>
     </g>
     <g id="text_25">
      <!-- 0.2 -->
      <g transform="translate(655 262.57875) scale(0.16 -0.16)">
       <use xlink:href="#OpenSans-Regular-30"/>
       <use xlink:href="#OpenSans-Regular-2e" x="57.177734"/>
       <use xlink:href="#OpenSans-Regular-32" x="83.789062"/>
      </g>
     </g>
    </g>
    <g id="ytick_13">
     <g id="line2d_24">
      <g>
       <use xlink:href="#m90d7f334c7" x="648" y="204.525" style="stroke: #000000; stroke-width: 0.8"/>
      </g>
     </g>
     <g id="text_26">
      <!-- 0.3 -->
      <g transform="translate(655 210.60375) scale(0.16 -0.16)">
       <defs>
        <path id="OpenSans-Regular-33" d="M 3144 3494 
Q 3144 3056 2898 2778 
Q 2653 2500 2203 2406 
L 2203 2381 
Q 2753 2313 3018 2031 
Q 3284 1750 3284 1294 
Q 3284 641 2831 289 
Q 2378 -63 1544 -63 
Q 1181 -63 879 -8 
Q 578 47 294 184 
L 294 678 
Q 591 531 927 454 
Q 1263 378 1563 378 
Q 2747 378 2747 1306 
Q 2747 2138 1441 2138 
L 991 2138 
L 991 2584 
L 1447 2584 
Q 1981 2584 2293 2820 
Q 2606 3056 2606 3475 
Q 2606 3809 2376 4000 
Q 2147 4191 1753 4191 
Q 1453 4191 1187 4109 
Q 922 4028 581 3809 
L 319 4159 
Q 600 4381 967 4507 
Q 1334 4634 1741 4634 
Q 2406 4634 2775 4329 
Q 3144 4025 3144 3494 
z
" transform="scale(0.015625)"/>
       </defs>
       <use xlink:href="#OpenSans-Regular-30"/>
       <use xlink:href="#OpenSans-Regular-2e" x="57.177734"/>
       <use xlink:href="#OpenSans-Regular-33" x="83.789062"/>
      </g>
     </g>
    </g>
    <g id="ytick_14">
     <g id="line2d_25">
      <g>
       <use xlink:href="#m90d7f334c7" x="648" y="152.55" style="stroke: #000000; stroke-width: 0.8"/>
      </g>
     </g>
     <g id="text_27">
      <!-- 0.4 -->
      <g transform="translate(655 158.62875) scale(0.16 -0.16)">
       <use xlink:href="#OpenSans-Regular-30"/>
       <use xlink:href="#OpenSans-Regular-2e" x="57.177734"/>
       <use xlink:href="#OpenSans-Regular-34" x="83.789062"/>
      </g>
     </g>
    </g>
    <g id="ytick_15">
     <g id="line2d_26">
      <g>
       <use xlink:href="#m90d7f334c7" x="648" y="100.575" style="stroke: #000000; stroke-width: 0.8"/>
      </g>
     </g>
     <g id="text_28">
      <!-- 0.5 -->
      <g transform="translate(655 106.65375) scale(0.16 -0.16)">
       <use xlink:href="#OpenSans-Regular-30"/>
       <use xlink:href="#OpenSans-Regular-2e" x="57.177734"/>
       <use xlink:href="#OpenSans-Regular-35" x="83.789062"/>
      </g>
     </g>
    </g>
    <g id="ytick_16">
     <g id="line2d_27">
      <g>
       <use xlink:href="#m90d7f334c7" x="648" y="48.6" style="stroke: #000000; stroke-width: 0.8"/>
      </g>
     </g>
     <g id="text_29">
      <!-- 0.6 -->
      <g transform="translate(655 54.67875) scale(0.16 -0.16)">
       <use xlink:href="#OpenSans-Regular-30"/>
       <use xlink:href="#OpenSans-Regular-2e" x="57.177734"/>
       <use xlink:href="#OpenSans-Regular-36" x="83.789062"/>
      </g>
     </g>
    </g>
    <g id="text_30">
     <!-- Lift to drag ratio -->
     <g transform="translate(695.325312 272.023594) rotate(-90) scale(0.18 -0.18)">
      <defs>
       <path id="OpenSans-Regular-4c" d="M 628 0 
L 628 4569 
L 1159 4569 
L 1159 481 
L 3175 481 
L 3175 0 
L 628 0 
z
" transform="scale(0.015625)"/>
      </defs>
      <use xlink:href="#OpenSans-Regular-4c"/>
      <use xlink:href="#OpenSans-Regular-69" x="51.904297"/>
      <use xlink:href="#OpenSans-Regular-66" x="77.197266"/>
      <use xlink:href="#OpenSans-Regular-74" x="111.083984"/>
      <use xlink:href="#OpenSans-Regular-20" x="146.386719"/>
      <use xlink:href="#OpenSans-Regular-74" x="172.363281"/>
      <use xlink:href="#OpenSans-Regular-6f" x="207.666016"/>
      <use xlink:href="#OpenSans-Regular-20" x="268.066406"/>
      <use xlink:href="#OpenSans-Regular-64" x="294.042969"/>
      <use xlink:href="#OpenSans-Regular-72" x="355.322266"/>
      <use xlink:href="#OpenSans-Regular-61" x="396.142578"/>
      <use xlink:href="#OpenSans-Regular-67" x="451.757812"/>
      <use xlink:href="#OpenSans-Regular-20" x="506.542969"/>
      <use xlink:href="#OpenSans-Regular-72" x="532.519531"/>
      <use xlink:href="#OpenSans-Regular-61" x="573.339844"/>
      <use xlink:href="#OpenSans-Regular-74" x="628.955078"/>
      <use xlink:href="#OpenSans-Regular-69" x="664.257812"/>
      <use xlink:href="#OpenSans-Regular-6f" x="689.550781"/>
     </g>
    </g>
   </g>
   <g id="line2d_28">
    <path d="M 117.9 230.777334 
L 266.049 230.777334 
L 266.328 231.016404 
L 271.908 230.900963 
L 278.604 230.521114 
L 286.416 229.844343 
L 295.902 228.786295 
L 307.341 227.278823 
L 322.128 225.093685 
L 342.216 221.885006 
L 346.122 221.16005 
L 355.608 218.660534 
L 355.887 218.32668 
L 375.696 213.468331 
L 395.505 208.839701 
L 415.593 204.375974 
L 435.96 200.079763 
L 441.261 198.998274 
L 441.54 198.700981 
L 471.393 193.076763 
L 489.249 189.841086 
L 489.528 189.562234 
L 513.522 185.625186 
L 513.801 185.306972 
L 514.08 185.171599 
L 517.428 185.334955 
L 517.707 185.197777 
L 517.986 184.875053 
L 543.375 180.531708 
L 543.654 180.72302 
L 566.532 177.256728 
L 589.41 174.015284 
L 602.244 172.294005 
L 602.523 172.034868 
L 630.144 168.334015 
L 648 166.05688 
L 648 166.05688 
" clip-path="url(#p5fa189d006)" style="fill: none; stroke: #0000ff; stroke-width: 1.5; stroke-linecap: square"/>
   </g>
   <g id="patch_7">
    <path d="M 90 360.45 
L 90 48.6 
" style="fill: none; stroke: #000000; stroke-width: 0.8; stroke-linejoin: miter; stroke-linecap: square"/>
   </g>
   <g id="patch_8">
    <path d="M 648 360.45 
L 648 48.6 
" style="fill: none; stroke: #000000; stroke-width: 0.8; stroke-linejoin: miter; stroke-linecap: square"/>
   </g>
   <g id="patch_9">
    <path d="M 90 360.45 
L 648 360.45 
" style="fill: none; stroke: #000000; stroke-width: 0.8; stroke-linejoin: miter; stroke-linecap: square"/>
   </g>
   <g id="patch_10">
    <path d="M 90 48.6 
L 648 48.6 
" style="fill: none; stroke: #000000; stroke-width: 0.8; stroke-linejoin: miter; stroke-linecap: square"/>
   </g>
  </g>
  <g id="legend_1">
   <g id="patch_11">
    <path d="M 552.24 144.008438 
L 635.4 144.008438 
Q 639 144.008438 639 140.408437 
L 639 61.2 
Q 639 57.6 635.4 57.6 
L 552.24 57.6 
Q 548.64 57.6 548.64 61.2 
L 548.64 140.408437 
Q 548.64 144.008438 552.24 144.008438 
z
" style="fill: #ffffff; opacity: 0.8; stroke: #ffffff; stroke-linejoin: miter"/>
   </g>
   <g id="line2d_29">
    <path d="M 555.84 72.177188 
L 573.84 72.177188 
L 591.84 72.177188 
" style="fill: none; stroke-dasharray: 5.55,2.4; stroke-dashoffset: 0; stroke: #008000; stroke-width: 1.5"/>
   </g>
   <g id="text_31">
    <!-- $f_{\mathrm{o}}$ -->
    <g transform="translate(606.24 78.477188) scale(0.18 -0.18)">
     <defs>
      <path id="DejaVuSans-Oblique-66" d="M 3059 4863 
L 2969 4384 
L 2419 4384 
Q 2106 4384 1964 4261 
Q 1822 4138 1753 3809 
L 1691 3500 
L 2638 3500 
L 2553 3053 
L 1606 3053 
L 1013 0 
L 434 0 
L 1031 3053 
L 481 3053 
L 563 3500 
L 1113 3500 
L 1159 3744 
Q 1278 4363 1576 4613 
Q 1875 4863 2516 4863 
L 3059 4863 
z
" transform="scale(0.015625)"/>
      <path id="DejaVuSans-6f" d="M 1959 3097 
Q 1497 3097 1228 2736 
Q 959 2375 959 1747 
Q 959 1119 1226 758 
Q 1494 397 1959 397 
Q 2419 397 2687 759 
Q 2956 1122 2956 1747 
Q 2956 2369 2687 2733 
Q 2419 3097 1959 3097 
z
M 1959 3584 
Q 2709 3584 3137 3096 
Q 3566 2609 3566 1747 
Q 3566 888 3137 398 
Q 2709 -91 1959 -91 
Q 1206 -91 779 398 
Q 353 888 353 1747 
Q 353 2609 779 3096 
Q 1206 3584 1959 3584 
z
" transform="scale(0.015625)"/>
     </defs>
     <use xlink:href="#DejaVuSans-Oblique-66" transform="translate(0 0.015625)"/>
     <use xlink:href="#DejaVuSans-6f" transform="translate(35.205078 -16.390625) scale(0.7)"/>
    </g>
   </g>
   <g id="line2d_30">
    <path d="M 555.84 99.18 
L 573.84 99.18 
L 591.84 99.18 
" style="fill: none; stroke-dasharray: 5.55,2.4; stroke-dashoffset: 0; stroke: #ff0000; stroke-width: 1.5"/>
   </g>
   <g id="text_32">
    <!-- $-f_{\mathrm{i}}$ -->
    <g transform="translate(606.24 105.48) scale(0.18 -0.18)">
     <defs>
      <path id="DejaVuSans-2212" d="M 678 2272 
L 4684 2272 
L 4684 1741 
L 678 1741 
L 678 2272 
z
" transform="scale(0.015625)"/>
      <path id="DejaVuSans-69" d="M 603 3500 
L 1178 3500 
L 1178 0 
L 603 0 
L 603 3500 
z
M 603 4863 
L 1178 4863 
L 1178 4134 
L 603 4134 
L 603 4863 
z
" transform="scale(0.015625)"/>
     </defs>
     <use xlink:href="#DejaVuSans-2212" transform="translate(0 0.015625)"/>
     <use xlink:href="#DejaVuSans-Oblique-66" transform="translate(83.789062 0.015625)"/>
     <use xlink:href="#DejaVuSans-69" transform="translate(118.994141 -16.390625) scale(0.7)"/>
    </g>
   </g>
   <g id="line2d_31">
    <path d="M 555.84 126.182813 
L 573.84 126.182813 
L 591.84 126.182813 
" style="fill: none; stroke: #0000ff; stroke-width: 1.5; stroke-linecap: square"/>
   </g>
   <g id="text_33">
    <!-- $E_{\mathrm{i}}$ -->
    <g transform="translate(606.24 132.482813) scale(0.18 -0.18)">
     <defs>
      <path id="DejaVuSans-Oblique-45" d="M 1081 4666 
L 4031 4666 
L 3928 4134 
L 1606 4134 
L 1338 2753 
L 3566 2753 
L 3463 2222 
L 1234 2222 
L 909 531 
L 3284 531 
L 3181 0 
L 172 0 
L 1081 4666 
z
" transform="scale(0.015625)"/>
     </defs>
     <use xlink:href="#DejaVuSans-Oblique-45" transform="translate(0 0.09375)"/>
     <use xlink:href="#DejaVuSans-69" transform="translate(63.183594 -16.3125) scale(0.7)"/>
    </g>
   </g>
  </g>
 </g>
 <defs>
  <clipPath id="p5fa189d006">
   <rect x="90" y="48.6" width="558" height="311.85"/>
  </clipPath>
 </defs>
</svg>
